<?xml version="1.0" encoding="UTF-8"?>
<!DOCTYPE svg PUBLIC "-//W3C//DTD SVG 1.1//EN" "http://www.w3.org/Graphics/SVG/1.1/DTD/svg11.dtd">
<!-- Creator: CorelDRAW 2019 (64-Bit) -->
<svg xmlns="http://www.w3.org/2000/svg" xml:space="preserve" width="1.51042in" height="1.51042in" version="1.1" style="shape-rendering:geometricPrecision; text-rendering:geometricPrecision; image-rendering:optimizeQuality; fill-rule:evenodd; clip-rule:evenodd"
viewBox="0 0 416.88 416.88"
 xmlns:xlink="http://www.w3.org/1999/xlink"
 xmlns:xodm="http://www.corel.com/coreldraw/odm/2003">
 <defs>
  <style type="text/css">
   <![CDATA[
    .fil2 {fill:#0F4E08}
    .fil1 {fill:#FFAF0F}
    .fil0 {fill:white}
   ]]>
  </style>
 </defs>
 <g id="Layer_x0020_1">
  <metadata id="CorelCorpID_0Corel-Layer"/>
  <rect class="fil0" width="416.88" height="416.88" rx="55.2" ry="55.2"/>
  <g id="_2394499384736">
   <path class="fil1" d="M295.56 249.61c2.88,-9.38 6.42,-16.08 16.79,-18.86 14.66,-3.93 31.26,7.38 28.92,22.17 -2.98,18.81 -7.25,36.86 -5.96,55.86 0.66,9.74 2.21,19.55 4.7,29.34 -7.4,0.94 -20.27,-9.67 -25.42,-14.65 -19.63,-19 -27.06,-47.68 -19.03,-73.86z"/>
   <path class="fil2" d="M272.31 189.47c-47.42,46.12 -31.65,124.87 27.98,150.29 -48.27,10.91 -96.13,-18.49 -108.8,-65.77 -12.97,-48.41 15.3,-98.15 63.27,-111.94 10.39,-2.99 20.34,-1.93 23.56,10.11 1.45,5.41 0.09,10.99 -3.39,14.86 -0.8,0.89 -1.77,1.62 -2.63,2.46z"/>
   <path class="fil2" d="M149.9 250.95c3.65,13.61 9.24,26.28 17.45,36.72 1.62,2.06 3.53,4 4.26,6.73 1.91,7.11 -2.32,14.43 -9.43,16.34 -4.05,1.08 -7.74,-0.55 -11.3,-2.09 -107.54,-46.56 -97.82,-199.62 14.14,-229.62 33.79,-9.05 68.14,-3.01 95.6,14.24 0.15,0.09 4.14,1.8 5.23,5.89 1.25,4.68 -1.81,10.41 -6.2,10.75 -0.9,0.07 -1.06,0.02 -4.17,0.09 -8.73,0.21 -17.58,1.45 -26.39,3.81 -59.73,16 -95.18,77.4 -79.18,137.14z"/>
  </g>
 </g>
</svg>
