<svg width="16" height="16" viewBox="0 0 16 16" fill="none" xmlns="http://www.w3.org/2000/svg">
<g clip-path="url(#clip0_3797_38519)">
<path d="M4.94357 15.3679C3.95055 15.3679 3.0205 14.9417 2.34927 14.262C1.04751 12.9441 0.685014 10.6439 2.50978 8.79689L9.99625 1.21673C10.755 0.448727 11.7204 0.151511 12.6443 0.402647C13.5529 0.648407 14.2963 1.40181 14.5397 2.32111C14.787 3.25807 14.4944 4.23573 13.7364 5.00373L6.57634 12.2537C6.16777 12.6676 5.70543 12.9126 5.24156 12.9618C4.78153 13.0109 4.343 12.8619 4.0358 12.5509C3.47977 11.9856 3.39989 10.925 4.3261 9.98805L9.35497 4.89621C9.56156 4.68732 9.89641 4.68732 10.103 4.89621C10.3096 5.10511 10.3096 5.44457 10.103 5.65346L5.07337 10.7461C4.63868 11.1854 4.59874 11.6055 4.78383 11.7936C4.86524 11.875 4.98812 11.9127 5.1302 11.8965C5.34754 11.8743 5.59561 11.7306 5.82831 11.4964L12.9884 4.24725C13.4799 3.74959 13.6681 3.16437 13.5183 2.59989C13.4434 2.32386 13.2985 2.07184 13.0976 1.86826C12.8968 1.66468 12.6467 1.51644 12.3717 1.43791C11.8141 1.28661 11.235 1.47785 10.7435 1.97551L3.25705 9.55567C1.86236 10.968 2.19644 12.5939 3.09653 13.5055C3.9974 14.4171 5.60175 14.7566 6.99721 13.3427L14.4837 5.76252C14.5325 5.71287 14.5907 5.67344 14.6549 5.64653C14.7191 5.61961 14.7881 5.60575 14.8577 5.60575C14.9273 5.60575 14.9962 5.61961 15.0605 5.64653C15.1247 5.67344 15.1829 5.71287 15.2317 5.76252C15.3311 5.86363 15.3868 5.99974 15.3868 6.14153C15.3868 6.28331 15.3311 6.41942 15.2317 6.52053L7.74524 14.1007C6.86281 14.9931 5.87439 15.3679 4.94357 15.3679Z" fill="black"/>
</g>
<defs>
<clipPath id="clip0_3797_38519">
<rect width="15.36" height="15.36" fill="white" transform="translate(0.640625 0.160156)"/>
</clipPath>
</defs>
</svg>
