<svg width="5" height="5" viewBox="0 0 5 5" fill="none" xmlns="http://www.w3.org/2000/svg">
<g clip-path="url(#clip0_3943_37863)">
<path d="M2.5 0C2.00555 0 1.5222 0.146622 1.11108 0.421326C0.699953 0.69603 0.379521 1.08648 0.190302 1.54329C0.00108321 2.00011 -0.0484251 2.50277 0.0480379 2.98773C0.144501 3.47268 0.382603 3.91814 0.732234 4.26777C1.08187 4.6174 1.52732 4.8555 2.01228 4.95196C2.49723 5.04843 2.99989 4.99892 3.45671 4.8097C3.91353 4.62048 4.30397 4.30005 4.57867 3.88893C4.85338 3.4778 5 2.99445 5 2.5C5 1.83696 4.73661 1.20107 4.26777 0.732233C3.79893 0.263392 3.16304 0 2.5 0V0ZM3.915 3.56L3.5625 3.9125L2.5 2.8525L1.44 3.915L1.085 3.56L2.1475 2.5L1.085 1.44L1.44 1.085L2.5 2.1475L3.56 1.0875L3.9125 1.44L2.8525 2.5L3.915 3.56Z" fill="black"/>
</g>
<defs>
<clipPath id="clip0_3943_37863">
<rect width="5" height="5" fill="white"/>
</clipPath>
</defs>
</svg>
