<svg width="6" height="6" viewBox="0 0 6 6" fill="none" xmlns="http://www.w3.org/2000/svg">
<path d="M2.71181 4.67123C2.78725 4.67123 2.8596 4.64126 2.91295 4.58792C2.96629 4.53457 2.99626 4.46222 2.99626 4.38678V2.68012C2.99626 2.60468 2.96629 2.53233 2.91295 2.47898C2.8596 2.42564 2.78725 2.39567 2.71181 2.39567C2.63637 2.39567 2.56403 2.42564 2.51068 2.47898C2.45734 2.53233 2.42737 2.60468 2.42737 2.68012V4.38678C2.42737 4.46222 2.45734 4.53457 2.51068 4.58792C2.56403 4.64126 2.63637 4.67123 2.71181 4.67123ZM5.55626 1.25789H4.41848V0.973451C4.41848 0.747132 4.32858 0.530084 4.16855 0.370053C4.00851 0.210022 3.79147 0.120117 3.56515 0.120117H2.99626C2.76994 0.120117 2.55289 0.210022 2.39286 0.370053C2.23283 0.530084 2.14293 0.747132 2.14293 0.973451V1.25789H1.00515C0.929708 1.25789 0.857359 1.28786 0.804015 1.34121C0.750671 1.39455 0.720703 1.4669 0.720703 1.54234C0.720703 1.61778 0.750671 1.69013 0.804015 1.74347C0.857359 1.79682 0.929708 1.82678 1.00515 1.82678H1.28959V4.95567C1.28959 5.18199 1.3795 5.39904 1.53953 5.55907C1.69956 5.7191 1.91661 5.80901 2.14293 5.80901H4.41848C4.6448 5.80901 4.86185 5.7191 5.02188 5.55907C5.18191 5.39904 5.27181 5.18199 5.27181 4.95567V1.82678H5.55626C5.6317 1.82678 5.70405 1.79682 5.75739 1.74347C5.81073 1.69013 5.8407 1.61778 5.8407 1.54234C5.8407 1.4669 5.81073 1.39455 5.75739 1.34121C5.70405 1.28786 5.6317 1.25789 5.55626 1.25789ZM2.71181 0.973451C2.71181 0.898011 2.74178 0.825662 2.79513 0.772318C2.84847 0.718974 2.92082 0.689006 2.99626 0.689006H3.56515C3.64059 0.689006 3.71294 0.718974 3.76628 0.772318C3.81962 0.825662 3.84959 0.898011 3.84959 0.973451V1.25789H2.71181V0.973451ZM4.70292 4.95567C4.70292 5.03111 4.67296 5.10346 4.61961 5.15681C4.56627 5.21015 4.49392 5.24012 4.41848 5.24012H2.14293C2.06749 5.24012 1.99514 5.21015 1.94179 5.15681C1.88845 5.10346 1.85848 5.03111 1.85848 4.95567V1.82678H4.70292V4.95567ZM3.84959 4.67123C3.92503 4.67123 3.99738 4.64126 4.05072 4.58792C4.10407 4.53457 4.13404 4.46222 4.13404 4.38678V2.68012C4.13404 2.60468 4.10407 2.53233 4.05072 2.47898C3.99738 2.42564 3.92503 2.39567 3.84959 2.39567C3.77415 2.39567 3.7018 2.42564 3.64846 2.47898C3.59512 2.53233 3.56515 2.60468 3.56515 2.68012V4.38678C3.56515 4.46222 3.59512 4.53457 3.64846 4.58792C3.7018 4.64126 3.77415 4.67123 3.84959 4.67123Z" fill="#EB6464"/>
</svg>
