<svg width="42" height="42" viewBox="0 0 42 42" fill="none" xmlns="http://www.w3.org/2000/svg">
<path d="M20.7208 5.68012C29.1688 5.68012 36.0808 12.5921 36.0808 21.0401C36.0808 29.4881 29.1688 36.4001 20.7208 36.4001C12.2728 36.4001 5.36078 29.4881 5.36078 21.0401C5.36078 12.5921 12.2728 5.68012 20.7208 5.68012ZM20.7208 3.12012C10.8648 3.12012 2.80078 11.1841 2.80078 21.0401C2.80078 30.8961 10.8648 38.9601 20.7208 38.9601C30.5768 38.9601 38.6408 30.8961 38.6408 21.0401C38.6408 11.1841 30.5768 3.12012 20.7208 3.12012Z" fill="#BDBDBD" fill-opacity="0.5"/>
<path d="M30.9605 19.7598H22.0005V10.7998H19.4405V19.7598H10.4805V22.3198H19.4405V31.2798H22.0005V22.3198H30.9605V19.7598Z" fill="#BDBDBD" fill-opacity="0.5"/>
</svg>
