<svg width="32" height="32" viewBox="0 0 32 32" fill="none" xmlns="http://www.w3.org/2000/svg">
<path d="M9.75922 23.36V9.34656C9.75913 9.04874 9.85796 8.75932 10.0402 8.52376C10.2224 8.2882 10.4778 8.11984 10.7661 8.04513C11.0544 7.97042 11.3593 7.99358 11.633 8.11098C11.9067 8.22839 12.1337 8.43338 12.2783 8.69376L20.0402 22.6662C20.1847 22.9266 20.4117 23.1316 20.6854 23.249C20.9591 23.3664 21.2641 23.3896 21.5524 23.3149C21.8407 23.2402 22.096 23.0718 22.2782 22.8362C22.4605 22.6007 22.5593 22.3113 22.5592 22.0134V8M7.19922 13.12H25.1192M7.19922 18.24H25.1192" stroke="black" stroke-width="2.56" stroke-linecap="round" stroke-linejoin="round"/>
</svg>
