<svg width="14" height="14" viewBox="0 0 14 14" fill="none" xmlns="http://www.w3.org/2000/svg">
<rect x="0.62444" y="0.92912" width="12.5353" height="12.5353" rx="6.26763" fill="white"/>
<path d="M4.3272 3.93359C4.14168 3.93359 3.96375 4.00729 3.83257 4.13848C3.70138 4.26966 3.62769 4.44758 3.62769 4.63311V9.29652C3.62769 9.60572 3.75052 9.90226 3.96916 10.1209C4.1878 10.3395 4.48434 10.4624 4.79354 10.4624H9.22378C9.47114 10.4624 9.70837 10.3641 9.88329 10.1892C10.0582 10.0143 10.1565 9.77705 10.1565 9.52969V5.79896C10.1565 5.63524 10.1134 5.47441 10.0315 5.33263C9.94964 5.19085 9.8319 5.07311 9.69012 4.99126V4.86628C9.69012 4.61891 9.59186 4.38168 9.41694 4.20677C9.24203 4.03186 9.0048 3.93359 8.75744 3.93359H4.3272ZM9.22378 4.86628H4.3272C4.26536 4.86628 4.20605 4.84171 4.16232 4.79798C4.11859 4.75425 4.09403 4.69495 4.09403 4.63311C4.09403 4.57126 4.11859 4.51196 4.16232 4.46823C4.20605 4.4245 4.26536 4.39993 4.3272 4.39993H8.75744C8.88112 4.39993 8.99974 4.44907 9.08719 4.53652C9.17465 4.62398 9.22378 4.74259 9.22378 4.86628ZM8.52427 7.66432H8.99061C9.05245 7.66432 9.11176 7.68889 9.15549 7.73262C9.19921 7.77635 9.22378 7.83565 9.22378 7.89749C9.22378 7.95933 9.19921 8.01864 9.15549 8.06237C9.11176 8.1061 9.05245 8.13066 8.99061 8.13066H8.52427C8.46243 8.13066 8.40312 8.1061 8.35939 8.06237C8.31566 8.01864 8.2911 7.95933 8.2911 7.89749C8.2911 7.83565 8.31566 7.77635 8.35939 7.73262C8.40312 7.68889 8.46243 7.66432 8.52427 7.66432Z" fill="black"/>
<rect x="0.62444" y="0.92912" width="12.5353" height="12.5353" rx="6.26763" stroke="black" stroke-width="0.522302"/>
</svg>
