<svg width="21" height="21" viewBox="0 0 21 21" fill="none" xmlns="http://www.w3.org/2000/svg">
<g clip-path="url(#clip0_3797_38552)">
<path d="M8.79996 15.6756C9.01875 15.6756 9.22858 15.5887 9.38328 15.434C9.53799 15.2793 9.6249 15.0694 9.6249 14.8506V9.90101C9.6249 9.68222 9.53799 9.4724 9.38328 9.31769C9.22858 9.16298 9.01875 9.07607 8.79996 9.07607C8.58117 9.07607 8.37135 9.16298 8.21664 9.31769C8.06194 9.4724 7.97502 9.68222 7.97502 9.90101V14.8506C7.97502 15.0694 8.06194 15.2793 8.21664 15.434C8.37135 15.5887 8.58117 15.6756 8.79996 15.6756ZM17.0493 5.77632H13.7496V4.95138C13.7496 4.29502 13.4889 3.66554 13.0247 3.20142C12.5606 2.7373 11.9311 2.47656 11.2748 2.47656H9.6249C8.96854 2.47656 8.33906 2.7373 7.87494 3.20142C7.41082 3.66554 7.15008 4.29502 7.15008 4.95138V5.77632H3.85033C3.63154 5.77632 3.42172 5.86323 3.26701 6.01794C3.1123 6.17264 3.02539 6.38247 3.02539 6.60126C3.02539 6.82004 3.1123 7.02987 3.26701 7.18458C3.42172 7.33928 3.63154 7.42619 3.85033 7.42619H4.67527V16.5005C4.67527 17.1569 4.93601 17.7864 5.40013 18.2505C5.86424 18.7146 6.49372 18.9753 7.15008 18.9753H13.7496C14.406 18.9753 15.0354 18.7146 15.4996 18.2505C15.9637 17.7864 16.2244 17.1569 16.2244 16.5005V7.42619H17.0493C17.2681 7.42619 17.478 7.33928 17.6327 7.18458C17.7874 7.02987 17.8743 6.82004 17.8743 6.60126C17.8743 6.38247 17.7874 6.17264 17.6327 6.01794C17.478 5.86323 17.2681 5.77632 17.0493 5.77632ZM8.79996 4.95138C8.79996 4.73259 8.88688 4.52276 9.04158 4.36806C9.19629 4.21335 9.40611 4.12644 9.6249 4.12644H11.2748C11.4936 4.12644 11.7034 4.21335 11.8581 4.36806C12.0128 4.52276 12.0997 4.73259 12.0997 4.95138V5.77632H8.79996V4.95138ZM14.5745 16.5005C14.5745 16.7193 14.4876 16.9291 14.3329 17.0838C14.1782 17.2385 13.9684 17.3255 13.7496 17.3255H7.15008C6.9313 17.3255 6.72147 17.2385 6.56676 17.0838C6.41206 16.9291 6.32515 16.7193 6.32515 16.5005V7.42619H14.5745V16.5005ZM12.0997 15.6756C12.3185 15.6756 12.5283 15.5887 12.683 15.434C12.8377 15.2793 12.9247 15.0694 12.9247 14.8506V9.90101C12.9247 9.68222 12.8377 9.4724 12.683 9.31769C12.5283 9.16298 12.3185 9.07607 12.0997 9.07607C11.8809 9.07607 11.6711 9.16298 11.5164 9.31769C11.3617 9.4724 11.2748 9.68222 11.2748 9.90101V14.8506C11.2748 15.0694 11.3617 15.2793 11.5164 15.434C11.6711 15.5887 11.8809 15.6756 12.0997 15.6756Z" fill="black"/>
<path d="M8.80192 15.6795C9.0207 15.6795 9.23053 15.5926 9.38523 15.4379C9.53994 15.2832 9.62685 15.0733 9.62685 14.8545V9.90492C9.62685 9.68613 9.53994 9.4763 9.38523 9.3216C9.23053 9.16689 9.0207 9.07998 8.80192 9.07998C8.58313 9.07998 8.3733 9.16689 8.2186 9.3216C8.06389 9.4763 7.97698 9.68613 7.97698 9.90492V14.8545C7.97698 15.0733 8.06389 15.2832 8.2186 15.4379C8.3733 15.5926 8.58313 15.6795 8.80192 15.6795ZM17.0513 5.78022H13.7515V4.95528C13.7515 4.29892 13.4908 3.66944 13.0267 3.20533C12.5626 2.74121 11.9331 2.48047 11.2767 2.48047H9.62685C8.97049 2.48047 8.34101 2.74121 7.87689 3.20533C7.41278 3.66944 7.15204 4.29892 7.15204 4.95528V5.78022H3.85228C3.6335 5.78022 3.42367 5.86714 3.26896 6.02184C3.11426 6.17655 3.02734 6.38637 3.02734 6.60516C3.02734 6.82395 3.11426 7.03378 3.26896 7.18848C3.42367 7.34319 3.6335 7.4301 3.85228 7.4301H4.67722V16.5044C4.67722 17.1608 4.93796 17.7903 5.40208 18.2544C5.8662 18.7185 6.49568 18.9792 7.15204 18.9792H13.7515C14.4079 18.9792 15.0374 18.7185 15.5015 18.2544C15.9656 17.7903 16.2264 17.1608 16.2264 16.5044V7.4301H17.0513C17.2701 7.4301 17.4799 7.34319 17.6346 7.18848C17.7893 7.03378 17.8762 6.82395 17.8762 6.60516C17.8762 6.38637 17.7893 6.17655 17.6346 6.02184C17.4799 5.86714 17.2701 5.78022 17.0513 5.78022ZM8.80192 4.95528C8.80192 4.7365 8.88883 4.52667 9.04353 4.37197C9.19824 4.21726 9.40807 4.13035 9.62685 4.13035H11.2767C11.4955 4.13035 11.7053 4.21726 11.8601 4.37197C12.0148 4.52667 12.1017 4.7365 12.1017 4.95528V5.78022H8.80192V4.95528ZM14.5765 16.5044C14.5765 16.7232 14.4896 16.933 14.3349 17.0877C14.1802 17.2425 13.9703 17.3294 13.7515 17.3294H7.15204C6.93325 17.3294 6.72342 17.2425 6.56872 17.0877C6.41401 16.933 6.3271 16.7232 6.3271 16.5044V7.4301H14.5765V16.5044ZM12.1017 15.6795C12.3205 15.6795 12.5303 15.5926 12.685 15.4379C12.8397 15.2832 12.9266 15.0733 12.9266 14.8545V9.90492C12.9266 9.68613 12.8397 9.4763 12.685 9.3216C12.5303 9.16689 12.3205 9.07998 12.1017 9.07998C11.8829 9.07998 11.6731 9.16689 11.5184 9.3216C11.3636 9.4763 11.2767 9.68613 11.2767 9.90492V14.8545C11.2767 15.0733 11.3636 15.2832 11.5184 15.4379C11.6731 15.5926 11.8829 15.6795 12.1017 15.6795Z" fill="#EB6464"/>
</g>
<defs>
<clipPath id="clip0_3797_38552">
<rect width="19.7985" height="19.7985" fill="white" transform="translate(0.548828 0.825195)"/>
</clipPath>
</defs>
</svg>
