<svg width="504" height="583" viewBox="0 0 504 583" fill="none" xmlns="http://www.w3.org/2000/svg">
<path fill-rule="evenodd" clip-rule="evenodd" d="M349.595 283.811C352.084 275.101 355.402 268.879 364.943 266.39C378.216 262.657 393.564 273.027 391.49 286.715C388.586 304.136 384.853 320.313 386.097 338.15C386.512 347.275 388.171 355.986 390.245 365.111C383.608 365.941 371.579 356.401 367.017 351.838C349.18 334.416 342.129 308.284 349.595 284.226V283.811Z" fill="#FFAF0F"/>
<path fill-rule="evenodd" clip-rule="evenodd" d="M327.531 228.069C283.977 270.378 298.495 342.553 353.248 365.781C308.865 375.737 264.897 348.775 253.282 305.636C241.253 261.253 267.385 215.625 311.354 202.767C320.894 199.863 330.02 201.108 332.923 211.892C334.168 216.87 332.923 221.847 330.02 225.581C329.19 226.41 328.36 227.24 327.531 227.655V228.069Z" fill="#0F4E08"/>
<path fill-rule="evenodd" clip-rule="evenodd" d="M215.74 284.391C219.058 296.835 224.036 308.449 231.917 317.99C233.576 320.064 235.235 321.723 235.65 324.211C237.309 330.848 233.576 337.485 226.939 339.144C223.206 339.974 219.888 338.729 216.57 337.07C117.848 294.346 126.974 154.145 229.428 126.354C260.538 118.058 292.062 123.45 316.95 139.627C316.95 139.627 320.683 141.287 321.928 145.02C323.172 149.168 320.269 154.56 316.121 154.975C314.047 154.975 316.121 154.975 316.121 154.975C314.876 154.975 313.632 154.975 312.387 154.975C304.506 154.975 296.21 156.219 288.329 158.293C233.576 172.811 201.222 229.223 215.74 283.976V284.391Z" fill="#0F4E08"/>
<path d="M421.867 400.403C426.755 400.403 431.598 400.403 436.485 400.403C440.44 400.581 441.017 404.047 441.151 407.157V448.345C445.06 443.102 448.171 440.214 454.969 440.214C468.964 440.214 471.941 454.832 471.941 465.984V542.85H451.014V467.361C451.014 464.473 449.948 460.874 446.438 460.874C444.794 460.874 442.972 462.296 441.106 465.14V542.85H420.179C420.179 495.975 420.179 449.144 420.179 402.27C420.179 401.692 420.801 400.537 421.823 400.359L421.867 400.403ZM199.979 399.071C203.4 399.071 206.332 400.27 208.731 402.669C211.086 405.113 212.286 407.957 212.286 411.334C212.286 414.71 211.086 417.554 208.731 419.998C206.332 422.397 203.4 423.597 199.979 423.597C196.602 423.597 193.714 422.397 191.314 419.998C188.96 417.554 187.76 414.755 187.76 411.467C187.76 408.09 189.004 405.202 191.448 402.758C193.936 400.315 196.78 399.071 199.979 399.071ZM67.5295 532.453C60.5538 544.36 48.8684 547.604 41.2707 535.918C26.7861 513.481 32.9176 471.715 47.4022 453.41C54.3334 444.657 63.8417 440.525 75.7048 440.258C82.3694 440.08 85.4352 443.457 85.4352 449.944V506.949C85.4352 528.898 95.3878 519.923 85.7906 534.008C83.4802 537.296 74.9494 548.937 67.485 532.497L67.5295 532.453ZM64.5526 466.739C61.1758 468.561 58.6877 471.627 57.0881 475.892C54.0668 483.934 54.0224 512.77 57.8879 521.256C59.2208 524.233 62.4643 525.521 64.5526 522.811V466.784V466.739ZM132.621 392.983C132.577 397.515 132.532 402.003 132.621 406.535C132.665 408.579 131.999 409.69 130 410.356C128.267 410.934 126.978 411.822 126.045 412.977C124.09 415.51 123.157 418.487 123.157 421.864V432.394H132.621V449.944H123.157V523.211C123.157 544.494 118.67 559.511 93.4772 560V537.296C102.63 537.296 102.23 526.277 102.23 519.612V449.944H93.4772V432.394H102.23V423.108C102.23 415.51 103.563 409.068 106.185 403.825C108.806 398.582 112.494 394.85 117.159 392.539C118.803 391.695 120.891 391.073 123.379 390.629C124.757 390.406 127.822 390.051 129.422 390.007C132.132 389.918 132.577 390.717 132.532 393.028L132.621 392.983ZM164.656 459.941C168.299 454.476 168.166 446.079 175.053 442.258C176.297 441.547 177.896 441.102 179.807 440.747C182.65 440.214 184.072 440.391 183.983 443.502C183.983 449.989 183.983 456.476 183.983 462.962C183.939 466.473 184.072 465.717 180.651 467.272C172.342 471.004 164.611 480.424 164.611 488.955V542.894H143.684V466.117C143.684 461.674 142.129 458.119 138.975 455.454L151.682 440.258C155.858 441.858 158.88 443.946 160.657 446.39C162.479 448.922 163.767 453.454 164.611 459.986L164.656 459.941ZM189.715 441.547H210.642V542.85H189.715V441.547ZM240.633 450.388C243.388 446.434 245.92 443.768 248.186 442.346C250.452 440.925 253.074 440.214 256.051 440.214C262.227 440.214 267.158 443.635 270.802 450.388C274.756 445.768 277.6 443.057 279.199 442.169C281.332 440.836 283.776 440.169 286.486 440.169C291.196 440.169 295.017 441.991 297.86 445.545C301.504 450.122 303.37 456.742 303.37 465.317V542.805H282.443V467.761C282.443 464.829 281.51 460.83 277.866 460.83C275.645 460.83 273.645 463.585 272.535 465.228V542.805H251.607V467.761C251.607 465.051 250.852 460.83 247.387 460.83C245.076 460.83 243.077 463.451 241.966 465.228V542.805H221.039V463.229C221.039 459.63 219.839 456.875 217.44 454.876C220.461 451.322 223.483 447.723 226.548 444.168C229.836 440.303 230.991 439.903 234.102 442.213C236.99 444.346 239.3 446.878 240.633 450.344V450.388ZM346.201 532.408C341.625 540.228 336.915 544.183 332.028 544.183C327.14 544.183 323.142 541.383 319.943 535.874C308.568 516.058 308.746 476.336 325.274 454.832C332.072 445.945 341.669 440.169 354.421 440.169C362.019 440.169 364.151 443.768 364.151 451.322V506.86C364.151 513.17 364.64 517.702 365.529 520.323C366.151 522.1 367.128 523.522 368.061 524.944C368.772 526.099 369.35 526.766 368.061 528.765C360.553 540.717 355.621 553.158 346.201 532.364V532.408ZM343.224 466.695C339.848 468.516 337.359 471.582 335.76 475.847C333.361 482.201 331.095 524.144 339.981 524.144C341.403 524.144 342.514 523.655 343.224 522.722V466.695ZM374.548 522.411C395.831 530.009 391.788 511.215 382.146 493.531C374.637 479.802 371.083 466.739 375.037 454.743C378.991 442.746 399.607 438.792 410.315 444.701L409.96 460.696C364.951 454.965 419.913 507.66 409.16 529.654C403.873 540.45 393.298 543.916 374.548 542.983V522.456V522.411Z" fill="#0F4E08"/>
</svg>
